<svg width="32" height="33" viewBox="0 0 32 33" fill="none" xmlns="http://www.w3.org/2000/svg">
<g clip-path="url(#clip0_241_14020)">
<path fill-rule="evenodd" clip-rule="evenodd" d="M16 9.32C18.774 6.47 25.708 11.46 16 17.874C6.292 11.46 13.226 6.472 16 9.324V9.32Z" fill="#FED7AA"/>
<path d="M4 4.5C4 3.43913 4.42143 2.42172 5.17157 1.67157C5.92172 0.921427 6.93913 0.5 8 0.5H24C25.0609 0.5 26.0783 0.921427 26.8284 1.67157C27.5786 2.42172 28 3.43913 28 4.5V31.5C27.9999 31.6809 27.9508 31.8584 27.8578 32.0135C27.7648 32.1687 27.6315 32.2957 27.472 32.3811C27.3125 32.4665 27.1329 32.507 26.9522 32.4983C26.7715 32.4897 26.5966 32.4322 26.446 32.332L16 26.702L5.554 32.332C5.40341 32.4322 5.22846 32.4897 5.04778 32.4983C4.86711 32.507 4.68747 32.4665 4.528 32.3811C4.36853 32.2957 4.23521 32.1687 4.14223 32.0135C4.04925 31.8584 4.00009 31.6809 4 31.5V4.5ZM8 2.5C7.46957 2.5 6.96086 2.71071 6.58579 3.08579C6.21071 3.46086 6 3.96957 6 4.5V29.632L15.446 24.668C15.6101 24.5588 15.8029 24.5005 16 24.5005C16.1971 24.5005 16.3899 24.5588 16.554 24.668L26 29.632V4.5C26 3.96957 25.7893 3.46086 25.4142 3.08579C25.0391 2.71071 24.5304 2.5 24 2.5H8Z" fill="#FED7AA"/>
</g>
<defs>
<clipPath id="clip0_241_14020">
<rect width="32" height="32" fill="white" transform="translate(0 0.5)"/>
</clipPath>
</defs>
</svg>
