<svg width="122" height="50" viewBox="0 0 122 50" fill="none" xmlns="http://www.w3.org/2000/svg">
<g clip-path="url(#clip0_241_14579)">
<path d="M6.94 11.2C7.12777 10.9805 7.36087 10.8042 7.62327 10.6834C7.88566 10.5625 8.17112 10.5 8.46 10.5H25.54C25.8289 10.5 26.1143 10.5625 26.3767 10.6834C26.6391 10.8042 26.8722 10.9805 27.06 11.2L32.278 17.288C32.7439 17.8317 33 18.524 33 19.24V19.75C33.0001 20.74 32.6909 21.7052 32.1156 22.5108C31.5404 23.3165 30.7277 23.9223 29.7914 24.2435C28.855 24.5647 27.8416 24.5854 26.8929 24.3025C25.9442 24.0197 25.1076 23.4475 24.5 22.666C24.0563 23.2375 23.4877 23.7 22.8377 24.0178C22.1877 24.3357 21.4736 24.5007 20.75 24.5C20.0264 24.5008 19.3122 24.3359 18.6622 24.018C18.0122 23.7001 17.4436 23.2376 17 22.666C16.5564 23.2376 15.9878 23.7001 15.3378 24.018C14.6878 24.3359 13.9736 24.5008 13.25 24.5C12.5264 24.5008 11.8122 24.3359 11.1622 24.018C10.5122 23.7001 9.94362 23.2376 9.5 22.666C8.89238 23.4475 8.05576 24.0197 7.10707 24.3025C6.15838 24.5854 5.14503 24.5647 4.20865 24.2435C3.27227 23.9223 2.45965 23.3165 1.88436 22.5108C1.30908 21.7052 0.999891 20.74 1 19.75V19.24C1.00003 18.524 1.25611 17.8317 1.722 17.288L6.942 11.198L6.94 11.2ZM10.5 19.75C10.5 20.4793 10.7897 21.1788 11.3055 21.6945C11.8212 22.2103 12.5207 22.5 13.25 22.5C13.9793 22.5 14.6788 22.2103 15.1945 21.6945C15.7103 21.1788 16 20.4793 16 19.75C16 19.4848 16.1054 19.2304 16.2929 19.0429C16.4804 18.8554 16.7348 18.75 17 18.75C17.2652 18.75 17.5196 18.8554 17.7071 19.0429C17.8946 19.2304 18 19.4848 18 19.75C18 20.4793 18.2897 21.1788 18.8055 21.6945C19.3212 22.2103 20.0207 22.5 20.75 22.5C21.4793 22.5 22.1788 22.2103 22.6945 21.6945C23.2103 21.1788 23.5 20.4793 23.5 19.75C23.5 19.4848 23.6054 19.2304 23.7929 19.0429C23.9804 18.8554 24.2348 18.75 24.5 18.75C24.7652 18.75 25.0196 18.8554 25.2071 19.0429C25.3946 19.2304 25.5 19.4848 25.5 19.75C25.5 20.4793 25.7897 21.1788 26.3055 21.6945C26.8212 22.2103 27.5207 22.5 28.25 22.5C28.9793 22.5 29.6788 22.2103 30.1945 21.6945C30.7103 21.1788 31 20.4793 31 19.75V19.24C31 19.0017 30.9149 18.7711 30.76 18.59L25.54 12.5H8.46L3.24 18.59C3.08509 18.7711 2.99998 19.0017 3 19.24V19.75C3 20.4793 3.28973 21.1788 3.80546 21.6945C4.32118 22.2103 5.02065 22.5 5.75 22.5C6.47935 22.5 7.17882 22.2103 7.69454 21.6945C8.21027 21.1788 8.5 20.4793 8.5 19.75C8.5 19.4848 8.60536 19.2304 8.79289 19.0429C8.98043 18.8554 9.23478 18.75 9.5 18.75C9.76522 18.75 10.0196 18.8554 10.2071 19.0429C10.3946 19.2304 10.5 19.4848 10.5 19.75V19.75ZM4 25.5C4.26522 25.5 4.51957 25.6054 4.70711 25.7929C4.89464 25.9804 5 26.2348 5 26.5V38.5H29V26.5C29 26.2348 29.1054 25.9804 29.2929 25.7929C29.4804 25.6054 29.7348 25.5 30 25.5C30.2652 25.5 30.5196 25.6054 30.7071 25.7929C30.8946 25.9804 31 26.2348 31 26.5V38.5H32C32.2652 38.5 32.5196 38.6054 32.7071 38.7929C32.8946 38.9804 33 39.2348 33 39.5C33 39.7652 32.8946 40.0196 32.7071 40.2071C32.5196 40.3946 32.2652 40.5 32 40.5H2C1.73478 40.5 1.48043 40.3946 1.29289 40.2071C1.10536 40.0196 1 39.7652 1 39.5C1 39.2348 1.10536 38.9804 1.29289 38.7929C1.48043 38.6054 1.73478 38.5 2 38.5H3V26.5C3 26.2348 3.10536 25.9804 3.29289 25.7929C3.48043 25.6054 3.73478 25.5 4 25.5V25.5ZM8 26.5C8.26522 26.5 8.51957 26.6054 8.70711 26.7929C8.89464 26.9804 9 27.2348 9 27.5V34.5H25V27.5C25 27.2348 25.1054 26.9804 25.2929 26.7929C25.4804 26.6054 25.7348 26.5 26 26.5C26.2652 26.5 26.5196 26.6054 26.7071 26.7929C26.8946 26.9804 27 27.2348 27 27.5V34.5C27 35.0304 26.7893 35.5391 26.4142 35.9142C26.0391 36.2893 25.5304 36.5 25 36.5H9C8.46957 36.5 7.96086 36.2893 7.58579 35.9142C7.21071 35.5391 7 35.0304 7 34.5V27.5C7 27.2348 7.10536 26.9804 7.29289 26.7929C7.48043 26.6054 7.73478 26.5 8 26.5Z" fill="#FED7AA"/>
</g>
<path d="M63.192 33L63.168 20.76L57.096 30.96H55.992L49.92 20.832V33H47.616V16.2H49.584L56.592 28.008L63.504 16.2H65.472L65.496 33H63.192ZM81.8374 26.712C81.8374 26.888 81.8214 27.12 81.7894 27.408H71.4694C71.6134 28.528 72.1014 29.432 72.9334 30.12C73.7814 30.792 74.8294 31.128 76.0774 31.128C77.5974 31.128 78.8214 30.616 79.7494 29.592L81.0214 31.08C80.4454 31.752 79.7254 32.264 78.8614 32.616C78.0134 32.968 77.0614 33.144 76.0054 33.144C74.6614 33.144 73.4694 32.872 72.4294 32.328C71.3894 31.768 70.5814 30.992 70.0054 30C69.4454 29.008 69.1654 27.888 69.1654 26.64C69.1654 25.408 69.4374 24.296 69.9814 23.304C70.5414 22.312 71.3014 21.544 72.2614 21C73.2374 20.44 74.3334 20.16 75.5494 20.16C76.7654 20.16 77.8454 20.44 78.7894 21C79.7494 21.544 80.4934 22.312 81.0214 23.304C81.5654 24.296 81.8374 25.432 81.8374 26.712ZM75.5494 22.104C74.4454 22.104 73.5174 22.44 72.7654 23.112C72.0294 23.784 71.5974 24.664 71.4694 25.752H79.6294C79.5014 24.68 79.0614 23.808 78.3094 23.136C77.5734 22.448 76.6534 22.104 75.5494 22.104ZM85.4117 20.28H87.7157V25.68H94.9637V20.28H97.2677V33H94.9637V27.672H87.7157V33H85.4117V20.28ZM113.004 20.16C114.236 20.16 115.34 20.44 116.316 21C117.292 21.544 118.06 22.312 118.62 23.304C119.18 24.28 119.46 25.392 119.46 26.64C119.46 27.888 119.18 29.008 118.62 30C118.06 30.976 117.292 31.744 116.316 32.304C115.34 32.864 114.236 33.144 113.004 33.144C111.884 33.144 110.868 32.912 109.956 32.448C109.044 31.984 108.292 31.336 107.7 30.504C107.124 29.656 106.764 28.696 106.62 27.624H104.052V33H101.748V20.28H104.052V25.488H106.644C106.804 24.432 107.172 23.504 107.748 22.704C108.34 21.888 109.084 21.264 109.98 20.832C110.892 20.384 111.9 20.16 113.004 20.16ZM113.004 31.128C113.788 31.128 114.492 30.944 115.116 30.576C115.756 30.208 116.26 29.688 116.628 29.016C116.996 28.328 117.18 27.536 117.18 26.64C117.18 25.76 116.996 24.984 116.628 24.312C116.26 23.624 115.756 23.096 115.116 22.728C114.492 22.36 113.788 22.176 113.004 22.176C112.22 22.176 111.508 22.36 110.868 22.728C110.228 23.096 109.724 23.624 109.356 24.312C109.004 24.984 108.828 25.76 108.828 26.64C108.828 27.536 109.004 28.328 109.356 29.016C109.724 29.688 110.228 30.208 110.868 30.576C111.508 30.944 112.22 31.128 113.004 31.128Z" fill="#FED7AA"/>
<path d="M121 49.5C121.552 49.5 122 49.0523 122 48.5C122 47.9477 121.552 47.5 121 47.5V49.5ZM1 47.5C0.447715 47.5 0 47.9477 0 48.5C0 49.0523 0.447715 49.5 1 49.5V47.5ZM121 47.5H1V49.5H121V47.5Z" fill="#F97316"/>
<defs>
<clipPath id="clip0_241_14579">
<rect width="32" height="32" fill="white" transform="translate(1 8.5)"/>
</clipPath>
</defs>
</svg>
