<svg width="24" height="25" viewBox="0 0 24 25" fill="none" xmlns="http://www.w3.org/2000/svg">
<path d="M2 24.5C2 24.5 0 24.5 0 22.5C0 20.5 2 14.5 12 14.5C22 14.5 24 20.5 24 22.5C24 24.5 22 24.5 22 24.5H2ZM12 12.5C13.5913 12.5 15.1174 11.8679 16.2426 10.7426C17.3679 9.61742 18 8.0913 18 6.5C18 4.9087 17.3679 3.38258 16.2426 2.25736C15.1174 1.13214 13.5913 0.5 12 0.5C10.4087 0.5 8.88258 1.13214 7.75736 2.25736C6.63214 3.38258 6 4.9087 6 6.5C6 8.0913 6.63214 9.61742 7.75736 10.7426C8.88258 11.8679 10.4087 12.5 12 12.5Z" fill="#FED7AA"/>
</svg>
