<svg width="30" height="33" viewBox="0 0 30 33" fill="none" xmlns="http://www.w3.org/2000/svg">
<path d="M15 2.5C16.0609 2.5 17.0783 2.92143 17.8284 3.67157C18.5786 4.42172 19 5.43913 19 6.5V10.5H11V6.5C11 5.43913 11.4214 4.42172 12.1716 3.67157C12.9217 2.92143 13.9391 2.5 15 2.5ZM21 10.5V6.5C21 4.9087 20.3679 3.38258 19.2426 2.25736C18.1174 1.13214 16.5913 0.5 15 0.5C13.4087 0.5 11.8826 1.13214 10.7574 2.25736C9.63213 3.38258 8.99999 4.9087 8.99999 6.5V10.5H5.71999C5.00174 10.5002 4.30738 10.758 3.76311 11.2267C3.21884 11.6953 2.86077 12.3437 2.75399 13.054L0.699992 26.76C0.593567 27.4712 0.641791 28.1969 0.841372 28.8878C1.04095 29.5786 1.3872 30.2182 1.85648 30.7631C2.32577 31.3079 2.90705 31.7451 3.56068 32.0449C4.21431 32.3446 4.92491 32.4999 5.64399 32.5H24.354C25.0732 32.5002 25.7841 32.3451 26.4379 32.0455C27.0918 31.7459 27.6733 31.3087 28.1429 30.7638C28.6124 30.219 28.9588 29.5792 29.1585 28.8882C29.3582 28.1973 29.4064 27.4713 29.3 26.76L27.244 13.054C27.1373 12.3441 26.7795 11.696 26.2356 11.2273C25.6918 10.7587 24.9979 10.5006 24.28 10.5H21ZM19 12.5V15.5C19 15.7652 19.1054 16.0196 19.2929 16.2071C19.4804 16.3946 19.7348 16.5 20 16.5C20.2652 16.5 20.5196 16.3946 20.7071 16.2071C20.8946 16.0196 21 15.7652 21 15.5V12.5H24.278C24.5174 12.5002 24.7488 12.5864 24.9301 12.7427C25.1114 12.899 25.2306 13.1152 25.266 13.352L27.322 27.054C27.3862 27.4808 27.3575 27.9165 27.2379 28.3312C27.1183 28.7459 26.9107 29.1299 26.6291 29.457C26.3475 29.7842 25.9987 30.0467 25.6064 30.2267C25.2141 30.4067 24.7876 30.4999 24.356 30.5H5.64399C5.21238 30.4999 4.78587 30.4067 4.39358 30.2267C4.00129 30.0467 3.65246 29.7842 3.37089 29.457C3.08933 29.1299 2.88167 28.7459 2.76209 28.3312C2.64251 27.9165 2.61383 27.4808 2.67799 27.054L4.73399 13.352C4.76937 13.1156 4.88828 12.8996 5.06916 12.7433C5.25004 12.587 5.48094 12.5007 5.71999 12.5H8.99999V15.5C8.99999 15.7652 9.10535 16.0196 9.29289 16.2071C9.48042 16.3946 9.73478 16.5 9.99999 16.5C10.2652 16.5 10.5196 16.3946 10.7071 16.2071C10.8946 16.0196 11 15.7652 11 15.5V12.5H19Z" fill="#FED7AA"/>
</svg>
